<?xml version="1.0" encoding="UTF-8"?>
<svg version="1.1" xmlns="http://www.w3.org/2000/svg" width="690" height="690">
<path d="M0 0 C227.7 0 455.4 0 690 0 C690 227.7 690 455.4 690 690 C462.3 690 234.6 690 0 690 C0 462.3 0 234.6 0 0 Z " fill="#141C24" transform="translate(0,0)"/>
<path d="M0 0 C16.59497053 -0.07029411 33.18989226 -0.1230876 49.78497601 -0.15543652 C57.49154851 -0.17086048 65.19802815 -0.19186371 72.90454102 -0.22631836 C79.62689414 -0.25635848 86.34917996 -0.27560743 93.07159835 -0.28226548 C96.62622883 -0.28615319 100.18066684 -0.2951947 103.73523521 -0.31719017 C107.71769881 -0.34163017 111.69983456 -0.34196071 115.68237305 -0.34057617 C116.84187973 -0.351362 118.00138641 -0.36214783 119.19602966 -0.3732605 C127.15820907 -0.34349881 134.31813928 0.95974953 142 3 C143.82724609 3.41765625 143.82724609 3.41765625 145.69140625 3.84375 C148.79641929 4.55346727 151.89839575 5.27553769 155 6 C156.08023438 6.2475 157.16046875 6.495 158.2734375 6.75 C163.56079221 8.00329889 168.2927832 9.25412353 173 12 C173 12.66 173 13.32 173 14 C174.175625 14.3403125 174.175625 14.3403125 175.375 14.6875 C182.66550189 17.32716448 188.73212158 20.20533374 194 26 C195.59153897 27.47210411 197.19728921 28.9289084 198.8125 30.375 C199.68648437 31.16261719 200.56046875 31.95023438 201.4609375 32.76171875 C202.96195801 34.08492606 204.48151688 35.38834982 206.0390625 36.64453125 C224.04674203 51.28040247 235.08038835 73.80175233 240 96 C240.66 96 241.32 96 242 96 C242.1546875 94.2984375 242.1546875 94.2984375 242.3125 92.5625 C243.22491691 85.28886662 246.02909427 78.64916997 249 72 C249.66 72 250.32 72 251 72 C251.15275391 70.93845703 251.15275391 70.93845703 251.30859375 69.85546875 C253.57375122 60.50049638 260.79394138 52.12509226 267 45 C267.46680176 44.46084961 267.93360352 43.92169922 268.41455078 43.36621094 C275.89861698 34.79316165 283.67255352 27.54514641 293 21 C293.97066406 20.31164062 294.94132812 19.62328125 295.94140625 18.9140625 C299.20124906 16.8740587 302.45058614 15.47483615 306 14 C307.40784027 13.30397775 308.80992723 12.59623569 310.20703125 11.87890625 C321.00750203 6.40841628 331.12458212 3.18757698 343 1 C344.485 0.505 344.485 0.505 346 0 C347.82681607 -0.0907313 349.65681858 -0.12195281 351.48588562 -0.12025452 C353.19593781 -0.12231651 353.19593781 -0.12231651 354.9405365 -0.12442017 C356.81788231 -0.11902725 356.81788231 -0.11902725 358.7331543 -0.11352539 C360.0503244 -0.11367142 361.36749451 -0.11381744 362.72457886 -0.1139679 C366.33793594 -0.11425515 369.95125991 -0.10836995 373.56460929 -0.10139394 C377.34025642 -0.09514853 381.11590429 -0.09455566 384.89155579 -0.09336853 C392.04194701 -0.09025873 399.19232296 -0.08205005 406.34270746 -0.07201904 C414.48288606 -0.06084703 422.62306539 -0.05534471 430.76324975 -0.05032361 C447.50884211 -0.03986716 464.25441911 -0.02227448 481 0 C481.03661962 3.8346099 481.05862188 7.66917411 481.078125 11.50390625 C481.08859863 12.58208618 481.09907227 13.66026611 481.10986328 14.77111816 C481.15399091 26.35241325 479.4080932 36.64368548 474 47 C473.36964844 48.28970703 473.36964844 48.28970703 472.7265625 49.60546875 C467.33801013 60.15929094 460.05727127 68.47080505 451.06640625 76.125 C448.81293232 78.01686498 448.81293232 78.01686498 447 81 C443.79829757 79.51323244 441.04792684 77.68811101 438.1875 75.625 C432.70858037 71.75280167 427.30848787 68.38899507 421.0625 65.8515625 C419.4650681 65.19201675 417.88472788 64.49099499 416.3125 63.7734375 C414.8275 63.11214844 414.8275 63.11214844 413.3125 62.4375 C411.94544922 61.81681641 411.94544922 61.81681641 410.55078125 61.18359375 C389.26577503 54.08859168 364.38957743 55.8857812 344.4375 65.625 C343.66019531 66.04523438 342.88289063 66.46546875 342.08203125 66.8984375 C340 68 340 68 336.625 69.25 C320.60485793 76.01907411 306.58533499 92.39962628 300 108 C298.23660462 111.48358954 296.43395053 114.9442707 294.62109375 118.40234375 C292.59489391 122.6150024 292.59489391 122.6150024 291 130 C280.77 130 270.54 130 260 130 C260 132.64 260 135.28 260 138 C260.84746796 137.99555878 261.69493591 137.99111755 262.56808472 137.98654175 C270.54359952 137.94651482 278.51908073 137.91604101 286.49467278 137.89637566 C290.59528757 137.88592574 294.69581958 137.87174463 298.79638672 137.84912109 C302.75155581 137.8274356 306.70664511 137.81544048 310.66186905 137.81024551 C312.17299786 137.80654201 313.68412217 137.79931025 315.19521713 137.78853989 C317.30716232 137.77408177 319.41877524 137.77201963 321.53076172 137.77294922 C322.73433319 137.768508 323.93790466 137.76406677 325.177948 137.75949097 C328 138 328 138 330 140 C330.58148571 141.63219009 331.11644621 143.28113555 331.625 144.9375 C333.954923 151.54616634 337.57428222 156.61939001 342 162 C342.61488281 162.7528125 343.22976563 163.505625 343.86328125 164.28125 C346.17441932 166.95729742 346.17441932 166.95729742 349 169 C354.71459851 169.02404459 357.78730006 166.19153201 361.8125 162.5625 C362.42416016 162.0255249 363.03582031 161.4885498 363.66601562 160.93530273 C368.14261859 156.94044168 372.18994458 152.67254598 376.09765625 148.1171875 C377.78397624 146.24042069 379.44727566 144.72431592 381.4375 143.1875 C384.11018532 141.28197339 384.11018532 141.28197339 384.74609375 138.8203125 C386.57653783 134.70323891 389.51965749 131.90465583 392.625 128.6875 C393.57886597 127.68565674 393.57886597 127.68565674 394.55200195 126.66357422 C396.36103822 124.76887714 398.17980572 122.88396751 400 121 C401.14662109 119.79150391 401.14662109 119.79150391 402.31640625 118.55859375 C416.10156858 104.31296671 416.10156858 104.31296671 424 103 C424.00364563 103.95942505 424.00729126 104.9188501 424.01104736 105.90734863 C424.04806547 114.97020208 424.10591235 124.03271789 424.18390274 133.09531403 C424.22333142 137.75398624 424.25554243 142.41247074 424.27099609 147.07128906 C424.28619315 151.57137009 424.32069245 156.07093489 424.36830902 160.57078552 C424.38309147 162.2834371 424.39103921 163.9961624 424.39188385 165.70887756 C424.40448876 178.45763416 425.85078795 186.14749463 434.765625 195.81640625 C438.25614372 199.227595 442.07444097 202.11381218 446 205 C447 206 447 206 447.12025452 208.20826721 C447.11803391 209.18311569 447.11581329 210.15796417 447.11352539 211.16235352 C447.11344986 212.26341934 447.11337433 213.36448517 447.11329651 214.49891663 C447.10813522 215.6968132 447.10297394 216.89470978 447.09765625 218.12890625 C447.09553383 219.95795753 447.09553383 219.95795753 447.09336853 221.82395935 C447.08774967 225.7368307 447.07519396 229.64964581 447.0625 233.5625 C447.05748743 236.20768147 447.0529241 238.85286383 447.04882812 241.49804688 C447.03777411 247.99871726 447.02101764 254.49935461 447 261 C423.45316036 261.11038908 399.91770305 261.05480185 376.375 260.5625 C375.37757782 260.54285187 374.38015564 260.52320374 373.35250854 260.50296021 C345.78542857 259.9487292 345.78542857 259.9487292 332.25 255.9375 C331.20376465 255.63021973 330.1575293 255.32293945 329.07958984 255.00634766 C321.58187908 252.70603195 314.86614734 249.8088927 308.12109375 245.8359375 C305.35655037 244.20973551 302.59853509 242.83665402 299.6875 241.5 C295.14555779 239.25530459 291.40888511 236.3686414 287.53515625 233.12109375 C284.09601653 230.24366252 280.51175408 227.56113725 276.93359375 224.859375 C274.78236555 222.79071919 274.69642312 221.78569248 274 219 C272.66906255 218.32856294 271.33517621 217.66296812 270 217 C257.11360375 203.35194775 249.22164718 186.67642358 244.15625 168.78125 C243.18983288 164.97367365 243.18983288 164.97367365 241 162 C241 160.68 241 159.36 241 158 C240.34 158 239.68 158 239 158 C238.82984375 158.66644531 238.6596875 159.33289063 238.484375 160.01953125 C238.24203125 160.94121094 237.9996875 161.86289062 237.75 162.8125 C237.40195312 164.15248047 237.40195312 164.15248047 237.046875 165.51953125 C234.31477143 174.60275618 230.76531317 182.79292426 226.125 191.0625 C225.62097656 191.97837891 225.11695313 192.89425781 224.59765625 193.83789062 C223.0852871 196.57059856 221.54955319 199.28822033 220 202 C219.49267334 202.89058105 218.98534668 203.78116211 218.46264648 204.69873047 C209.05026522 220.84675738 194.19990496 233.87515557 178 243 C177.34 243 176.68 243 176 243 C176 243.66 176 244.32 176 245 C175.11957031 245.32613281 174.23914063 245.65226563 173.33203125 245.98828125 C172.17058594 246.42527344 171.00914062 246.86226562 169.8125 247.3125 C168.08966797 247.95638672 168.08966797 247.95638672 166.33203125 248.61328125 C163.08242486 249.85735756 163.08242486 249.85735756 160.65234375 251.4765625 C129.79334989 269.20116869 78.32757296 261.36485851 44 261 C43.79640972 253.33241373 43.65674856 245.66552929 43.56054688 237.99584961 C43.52042625 235.38946487 43.46591477 232.78325893 43.39648438 230.17749023 C43.29893866 226.42126278 43.25395612 222.66742338 43.21875 218.91015625 C43.17745972 217.75354996 43.13616943 216.59694366 43.09362793 215.4052887 C43.09020655 209.17424188 43.69399925 205.61439265 47.88085938 200.85327148 C49.22473925 199.53836116 50.59499332 198.24938325 52 197 C59.10918829 190.22147163 62.38231486 185.50272691 62.65942383 175.56445312 C62.71836043 172.13618591 62.71572777 168.70991447 62.70703125 165.28125 C62.72015827 163.45420695 62.73546557 161.62717837 62.75285339 159.8001709 C62.79259896 155.01290179 62.80288709 150.22601325 62.80688477 145.43859863 C62.81623594 140.5448866 62.85366188 135.65139633 62.88867188 130.7578125 C62.95314131 121.17188527 62.98646865 111.58612508 63 102 C66.69247839 103.73616929 69.2559743 105.89450174 72.25 108.6875 C75.44483718 111.64540835 78.64214025 114.59119346 81.9375 117.4375 C82.56914062 117.99179688 83.20078125 118.54609375 83.8515625 119.1171875 C85.48432652 120.54808252 87.12670559 121.96801466 88.7734375 123.3828125 C95.40999697 129.1856116 100.87965975 135.36380691 106.2109375 142.37109375 C117.30931321 158.5231733 117.30931321 158.5231733 132.546875 168.359375 C137.10730379 167.69128671 139.27921771 164.51411101 142 161 C146.55513983 153.91143065 150.02287461 146.93900104 153 139 C176.1 139 199.2 139 223 139 C223 135.7 223 132.4 223 129 C222.17274414 129.00523682 221.34548828 129.01047363 220.49316406 129.01586914 C216.74545043 129.03665469 212.99774894 129.04966524 209.25 129.0625 C207.94804687 129.07087891 206.64609375 129.07925781 205.3046875 129.08789062 C204.05429687 129.09111328 202.80390625 129.09433594 201.515625 129.09765625 C200.36352539 129.10289307 199.21142578 129.10812988 198.02441406 129.11352539 C193.28129641 128.93548618 193.28129641 128.93548618 191 128 C189.78202597 125.55809609 188.83075719 123.30697881 187.9375 120.75 C186.28320723 116.19520982 184.59460131 112.12512456 182 108 C181.4121875 106.453125 181.4121875 106.453125 180.8125 104.875 C176.25299404 94.10433032 167.33583923 85.89589216 159 78 C158.0409375 77.05253906 158.0409375 77.05253906 157.0625 76.0859375 C152.36763704 71.68450348 146.91597932 69.39401498 141 67 C139.97519531 66.5771875 138.95039063 66.154375 137.89453125 65.71875 C134.61840826 64.40989697 131.31898526 63.19561107 128 62 C126.99066406 61.60296875 125.98132813 61.2059375 124.94140625 60.796875 C107.53272076 54.7453858 85.67740965 56.23434007 68.921875 63.5703125 C65.21365654 65.38476164 61.73383449 67.46644443 58.2421875 69.6640625 C56 71 56 71 52.3125 72.5 C48.74587489 74.11507552 46.64129606 75.99088602 43.96875 78.79296875 C40.83425322 80.7147138 38.59675265 80.47700249 35 80 C32.68350952 78.40087431 30.99839583 77.03006296 29.0625 75.0625 C28.54308838 74.55452881 28.02367676 74.04655762 27.48852539 73.52319336 C26.44889464 72.49678167 25.41764739 71.46180004 24.39550781 70.41796875 C23.2365952 69.24040324 22.04059483 68.09947529 20.8359375 66.96875 C8.63460783 54.7172091 -0.00020769 36.0214274 -0.12817383 18.76831055 C-0.11953513 16.51607733 -0.10400926 14.2638613 -0.08203125 12.01171875 C-0.07610962 10.85458374 -0.07018799 9.69744873 -0.06408691 8.50524902 C-0.04872208 5.67007197 -0.02720007 2.83508406 0 0 Z " fill="#F9F1DA" transform="translate(112,131)"/>
<path d="M0 0 C5.919375 -0.061875 11.83875 -0.12375 17.9375 -0.1875 C20.71208618 -0.22846802 20.71208618 -0.22846802 23.54272461 -0.27026367 C25.03759105 -0.2790398 26.53246477 -0.28668105 28.02734375 -0.29296875 C29.15662292 -0.3159906 29.15662292 -0.3159906 30.30871582 -0.33947754 C39.75168268 -0.34404156 47.32849841 2.82023542 54.375 9.125 C56 11 56 11 56 13 C56.66 13 57.32 13 58 13 C62.03619542 20.82012863 63.40876507 28.25793728 62 37 C58.84941672 45.39503248 54.0247357 51.05276799 46 55 C44.98542725 55.51336914 43.97085449 56.02673828 42.92553711 56.55566406 C38.54520846 58.41374956 34.48518399 58.38243718 29.78515625 58.29296875 C28.64572571 58.28843689 28.64572571 58.28843689 27.48327637 58.28381348 C24.67621046 58.2682506 21.86933995 58.22636764 19.0625 58.1875 C12.771875 58.125625 6.48125 58.06375 0 58 C0 38.86 0 19.72 0 0 Z " fill="#F6EED7" transform="translate(293,439)"/>
<path d="M0 0 C1.45244923 0.0201031 2.90492544 0.03834712 4.35742188 0.0546875 C7.88533902 0.09493755 11.40944291 0.17325676 14.9375 0.25 C14.9375 7.18 14.9375 14.11 14.9375 21.25 C11.94042969 21.32347656 11.94042969 21.32347656 8.8828125 21.3984375 C6.95001243 21.45405765 5.01721363 21.50974546 3.08447266 21.56738281 C1.07863029 21.62454036 -0.92748918 21.67168596 -2.93359375 21.71875 C-4.81884766 21.77675781 -4.81884766 21.77675781 -6.7421875 21.8359375 C-8.48604736 21.88306885 -8.48604736 21.88306885 -10.26513672 21.93115234 C-13.19906482 21.97157869 -13.19906482 21.97157869 -15.0625 24.25 C-15.52540221 26.91242821 -15.52540221 26.91242821 -15.6875 29.875 C-15.76226562 30.87789063 -15.83703125 31.88078125 -15.9140625 32.9140625 C-15.96304687 33.68492187 -16.01203125 34.45578125 -16.0625 35.25 C-9.60444917 36.35259404 -3.16491808 36.57574332 3.375 36.8125 C4.48810547 36.85568359 5.60121094 36.89886719 6.74804688 36.94335938 C9.47774191 37.04879824 12.20760618 37.14983996 14.9375 37.25 C14.9375 44.51 14.9375 51.77 14.9375 59.25 C10.7045978 59.34257866 6.47530123 59.42197032 2.2421875 59.46972656 C0.80684413 59.48966189 -0.62841997 59.51682074 -2.06347656 59.55175781 C-10.53126198 59.75252818 -18.58286597 59.87083671 -26.0625 55.25 C-26.3925 54.59 -26.7225 53.93 -27.0625 53.25 C-27.805 53.023125 -28.5475 52.79625 -29.3125 52.5625 C-33.95611938 50.34622712 -36.11357017 46.50701636 -38.04296875 41.91796875 C-41.09470524 32.82006889 -41.26359462 23.99834685 -37.0625 15.25 C-33.89319859 9.90238818 -30.95535133 6.56092209 -25.0625 4.25 C-24.49644043 3.92386719 -23.93038086 3.59773438 -23.34716797 3.26171875 C-15.89348426 -0.78220336 -8.20964369 -0.1986582 0 0 Z " fill="#EFE8D2" transform="translate(398.0625,438.75)"/>
<path d="M0 0 C3.2175 -0.12375 6.435 -0.2475 9.75 -0.375 C10.75772461 -0.42962402 11.76544922 -0.48424805 12.80371094 -0.54052734 C15.31385305 -0.58742232 17.5426297 -0.53077892 20 0 C22.74161409 2.83952888 23.79655658 4.66948005 24.390625 8.5546875 C24.32101563 9.70324219 24.32101563 9.70324219 24.25 10.875 C24.21390625 11.65617188 24.1778125 12.43734375 24.140625 13.2421875 C24.07101563 14.11230469 24.07101563 14.11230469 24 15 C23.34 15 22.68 15 22 15 C20.32619479 17.71674217 20.32619479 17.71674217 20.25 20.8125 C20.4975 21.534375 20.745 22.25625 21 23 C21.350625 24.2375 21.70125 25.475 22.0625 26.75 C22.5265625 28.35875 22.5265625 28.35875 23 30 C21.02 30 19.04 30 17 30 C16.01 27.03 15.02 24.06 14 21 C11.36 21 8.72 21 6 21 C6 23.97 6 26.94 6 30 C4.02 30 2.04 30 0 30 C0 20.1 0 10.2 0 0 Z " fill="#DDD7C3" transform="translate(183,526)"/>
<path d="M0 0 C3.2175 -0.12375 6.435 -0.2475 9.75 -0.375 C10.75772461 -0.42962402 11.76544922 -0.48424805 12.80371094 -0.54052734 C15.31385305 -0.58742232 17.5426297 -0.53077892 20 0 C22.74161409 2.83952888 23.79655658 4.66948005 24.390625 8.5546875 C24.32101562 9.70324219 24.32101562 9.70324219 24.25 10.875 C24.21390625 11.65617188 24.1778125 12.43734375 24.140625 13.2421875 C24.07101562 14.11230469 24.07101562 14.11230469 24 15 C23.34 15 22.68 15 22 15 C21.566875 15.928125 21.566875 15.928125 21.125 16.875 C20 19 20 19 18 21 C15.1796875 21.1953125 15.1796875 21.1953125 11.875 21.125 C10.77929688 21.10695313 9.68359375 21.08890625 8.5546875 21.0703125 C7.71164062 21.04710937 6.86859375 21.02390625 6 21 C6 23.97 6 26.94 6 30 C4.02 30 2.04 30 0 30 C0 20.1 0 10.2 0 0 Z " fill="#D9D4C0" transform="translate(467,526)"/>
<path d="M0 0 C7.26 0 14.52 0 22 0 C22 1.98 22 3.96 22 6 C16.72 6 11.44 6 6 6 C6 7.98 6 9.96 6 12 C9.96 12 13.92 12 18 12 C18 13.98 18 15.96 18 18 C14.04 18 10.08 18 6 18 C6 19.98 6 21.96 6 24 C11.28 24 16.56 24 22 24 C22 25.98 22 27.96 22 30 C14.74 30 7.48 30 0 30 C0 20.1 0 10.2 0 0 Z " fill="#B8B5A6" transform="translate(233,526)"/>
<path d="M0 0 C2.31 0 4.62 0 7 0 C9.61650182 5.52372607 11.80419497 11.08785327 13.75 16.875 C13.97260498 17.52927979 14.19520996 18.18355957 14.42456055 18.85766602 C15.36359939 21.70130699 16 23.9836706 16 27 C16.66 27 17.32 27 18 27 C18 27.99 18 28.98 18 30 C16.02 30 14.04 30 12 30 C11.34 28.35 10.68 26.7 10 25 C5.71 24.67 1.42 24.34 -3 24 C-3.33 25.65 -3.66 27.3 -4 29 C-5 30 -5 30 -7.5625 30.0625 C-8.366875 30.041875 -9.17125 30.02125 -10 30 C-9.39135995 24.21791954 -7.20431989 19.31339795 -5 14 C-3.20287031 9.37647542 -1.53335154 4.71800475 0 0 Z " fill="#E3DDC8" transform="translate(423,526)"/>
<path d="M0 0 C1.12148438 -0.02578125 2.24296875 -0.0515625 3.3984375 -0.078125 C6.95608299 0.28366946 8.82494726 1.05255601 11.625 3.25 C11.9375 5.9375 11.9375 5.9375 11.625 8.25 C6.75 7.375 6.75 7.375 5.625 6.25 C3.60535801 6.17755947 1.58332876 6.16622812 -0.4375 6.1875 C-1.54222656 6.19652344 -2.64695312 6.20554687 -3.78515625 6.21484375 C-4.63980469 6.22644531 -5.49445313 6.23804688 -6.375 6.25 C-6.375 7.9 -6.375 9.55 -6.375 11.25 C-5.33859375 11.28738281 -4.3021875 11.32476563 -3.234375 11.36328125 C-1.86454816 11.42895788 -0.49475809 11.49540464 0.875 11.5625 C1.89787109 11.59633789 1.89787109 11.59633789 2.94140625 11.63085938 C5.96005537 11.79204938 8.35158139 12.11590297 11.078125 13.453125 C13.1921368 15.90879527 13.15983366 17.47844901 13.125 20.6875 C13.1353125 21.63496094 13.145625 22.58242188 13.15625 23.55859375 C12.45324708 27.12013062 11.644422 28.21978021 8.625 30.25 C5.75444397 30.82119352 2.98074557 30.80910371 0.0625 30.75 C-0.70513672 30.76546875 -1.47277344 30.7809375 -2.26367188 30.796875 C-7.8242114 30.75809181 -7.8242114 30.75809181 -10.390625 28.390625 C-11.55799192 25.85206518 -11.60530197 24.01362368 -11.375 21.25 C-10.055 21.25 -8.735 21.25 -7.375 21.25 C-6.715 22.24 -6.055 23.23 -5.375 24.25 C-2.47891601 24.61498034 -2.47891601 24.61498034 0.75 24.4375 C1.84570312 24.41042969 2.94140625 24.38335938 4.0703125 24.35546875 C4.91335938 24.32066406 5.75640625 24.28585937 6.625 24.25 C6.955 21.94 7.285 19.63 7.625 17.25 C6.08779297 17.30220703 6.08779297 17.30220703 4.51953125 17.35546875 C3.15887064 17.38362035 1.7981922 17.41091904 0.4375 17.4375 C-0.23603516 17.46263672 -0.90957031 17.48777344 -1.60351562 17.51367188 C-6.02774363 17.57841668 -9.00533932 17.22019804 -12.375 14.25 C-12.96875 11.875 -12.96875 11.875 -12.875 9.25 C-12.8646875 8.38375 -12.854375 7.5175 -12.84375 6.625 C-12.29334143 3.83626325 -11.62080627 2.94494813 -9.375 1.25 C-6.07164934 0.14888311 -3.47667863 0.04773472 0 0 Z " fill="#E1DBC7" transform="translate(293.375,525.75)"/>
<path d="M0 0 C16.76768983 -0.04669123 33.53535862 -0.0819747 50.30309772 -0.10362434 C58.08839909 -0.11394319 65.87366009 -0.12801512 73.65893555 -0.15087891 C80.44345173 -0.17079419 87.2279387 -0.18371201 94.0124833 -0.18817699 C97.60587092 -0.19078754 101.19917492 -0.19693601 104.79253578 -0.21146011 C108.80093747 -0.22753082 112.80919317 -0.22798089 116.81762695 -0.22705078 C118.0130864 -0.23424133 119.20854584 -0.24143188 120.44023132 -0.24884033 C122.07455612 -0.24471634 122.07455612 -0.24471634 123.74189758 -0.24050903 C124.69042256 -0.24235262 125.63894754 -0.24419621 126.61621571 -0.24609566 C129 0 129 0 132 2 C89.1 2 46.2 2 2 2 C2.1568148 24.4646642 2.1568148 24.4646642 5 36 C4.67 37.32 4.34 38.64 4 40 C0.54886714 30.52479147 -0.27597226 21.99175789 -0.125 11.93359375 C-0.11597656 10.78209839 -0.10695313 9.63060303 -0.09765625 8.44421387 C-0.07428952 5.62925335 -0.04152979 2.81474121 0 0 Z " fill="#C8C4B4" transform="translate(112,131)"/>
<path d="M0 0 C7.92 0 15.84 0 24 0 C24 1.98 24 3.96 24 6 C21.03 6 18.06 6 15 6 C15 13.92 15 21.84 15 30 C13.02 30 11.04 30 9 30 C9 22.08 9 14.16 9 6 C6.03 6 3.06 6 0 6 C0 4.02 0 2.04 0 0 Z " fill="#BBB7A8" transform="translate(331,526)"/>
<path d="M0 0 C10.98734177 -0.6037001 10.98734177 -0.6037001 15.25 1.9375 C17.53099942 5.92924898 18.01366443 9.48919328 17 14 C15.91796875 15.76171875 15.91796875 15.76171875 14 17 C9.30736629 17.40971773 4.71873609 17.12987347 0 17 C0 11.39 0 5.78 0 0 Z " fill="#2A3136" transform="translate(315,460)"/>
<path d="M0 0 C6.27 0 12.54 0 19 0 C19 0.66 19 1.32 19 2 C13.72 2 8.44 2 3 2 C3 4.97 3 7.94 3 11 C6.96 11 10.92 11 15 11 C15 12.32 15 13.64 15 15 C11.04 15 7.08 15 3 15 C3 17.97 3 20.94 3 24 C8.28 24 13.56 24 19 24 C19 24.99 19 25.98 19 27 C12.73 27 6.46 27 0 27 C0 18.09 0 9.18 0 0 Z " fill="#F7F0D8" transform="translate(235,528)"/>
<path d="M0 0 C2.31 0 4.62 0 7 0 C11.40774487 9.41002278 11.40774487 9.41002278 12 14 C11.01 13.67 10.02 13.34 9 13 C8.67 14.98 8.34 16.96 8 19 C5.36 19 2.72 19 0 19 C-0.33 16.69 -0.66 14.38 -1 12 C-1.66 12 -2.32 12 -3 12 C-2.01 8.04 -1.02 4.08 0 0 Z " fill="#DFD9C5" transform="translate(423,526)"/>
<path d="M0 0 C0.99 0 1.98 0 3 0 C3.33 28.05 3.66 56.1 4 85 C1.08991147 80.63486721 0.83607791 77.83201803 0.79467773 72.70458984 C0.78477814 71.95327286 0.77487854 71.20195587 0.76467896 70.4278717 C0.73303477 67.93892594 0.70829505 65.44996107 0.68359375 62.9609375 C0.66302674 61.23743182 0.64203033 59.51393121 0.62062073 57.79043579 C0.56537393 53.2497976 0.51597617 48.7091137 0.46777344 44.168396 C0.41757744 39.53670168 0.36188146 34.90507391 0.30664062 30.2734375 C0.19902716 21.18234849 0.09758928 12.09120175 0 3 C-0.66 2.67 -1.32 2.34 -2 2 C-1.34 1.34 -0.68 0.68 0 0 Z " fill="#595C5B" transform="translate(535,232)"/>
<path d="M0 0 C1.65 0 3.3 0 5 0 C5 9.9 5 19.8 5 30 C3.35 30 1.7 30 0 30 C0 20.1 0 10.2 0 0 Z " fill="#E0DAC6" transform="translate(517,526)"/>
<path d="M0 0 C5.61 0.33 11.22 0.66 17 1 C17 3.31 17 5.62 17 8 C16 9 16 9 13.27734375 9.09765625 C11.62412109 9.08025391 11.62412109 9.08025391 9.9375 9.0625 C8.28041016 9.04896484 8.28041016 9.04896484 6.58984375 9.03515625 C5.73519531 9.02355469 4.88054687 9.01195312 4 9 C3.34 7.68 2.68 6.36 2 5 C0.68 5 -0.64 5 -2 5 C-1.34 7.31 -0.68 9.62 0 12 C-0.99 11.67 -1.98 11.34 -3 11 C-3 8.36 -3 5.72 -3 3 C-1.68 3 -0.36 3 1 3 C0.67 2.01 0.34 1.02 0 0 Z " fill="#3A3F42" transform="translate(284,542)"/>
<path d="M0 0 C1.95803507 -0.05389087 3.91648909 -0.09274217 5.875 -0.125 C7.51082031 -0.15980469 7.51082031 -0.15980469 9.1796875 -0.1953125 C12 0 12 0 14 2 C14.25 5 14.25 5 14 8 C12 10 12 10 9.43359375 10.23046875 C8.44488281 10.21628906 7.45617187 10.20210937 6.4375 10.1875 C5.44621094 10.18105469 4.45492188 10.17460938 3.43359375 10.16796875 C1 10 1 10 0 9 C-0.07179964 7.48071962 -0.08392007 5.95832518 -0.0625 4.4375 C-0.05347656 3.61121094 -0.04445313 2.78492188 -0.03515625 1.93359375 C-0.02355469 1.29550781 -0.01195312 0.65742187 0 0 Z " fill="#585C5A" transform="translate(472,531)"/>
<path d="M0 0 C0.98871094 -0.01417969 1.97742188 -0.02835938 2.99609375 -0.04296875 C5.5625 0.1875 5.5625 0.1875 7.5625 2.1875 C7.8125 5.1875 7.8125 5.1875 7.5625 8.1875 C5.5625 10.1875 5.5625 10.1875 2.99609375 10.41796875 C2.00738281 10.40378906 1.01867187 10.38960937 0 10.375 C-0.99128906 10.36855469 -1.98257813 10.36210938 -3.00390625 10.35546875 C-5.4375 10.1875 -5.4375 10.1875 -6.4375 9.1875 C-6.5703125 7.375 -6.5703125 7.375 -6.5625 5.1875 C-6.56507813 4.465625 -6.56765625 3.74375 -6.5703125 3 C-6.28218264 -0.93212514 -3.28208886 0.02133998 0 0 Z " fill="#5A5D5B" transform="translate(194.4375,530.8125)"/>
<path d="M0 0 C1.08152344 -0.01417969 2.16304688 -0.02835938 3.27734375 -0.04296875 C6.0625 0.1875 6.0625 0.1875 8.0625 2.1875 C10.13124034 2.8300235 10.13124034 2.8300235 12.0625 3.1875 C12.3925 2.1975 12.7225 1.2075 13.0625 0.1875 C13.0625 1.8375 13.0625 3.4875 13.0625 5.1875 C12.0725 5.1875 11.0825 5.1875 10.0625 5.1875 C10.7225 6.5075 11.3825 7.8275 12.0625 9.1875 C11.0725 8.8575 10.0825 8.5275 9.0625 8.1875 C5.82011373 7.92982692 2.58387679 7.74503192 -0.6640625 7.58203125 C-5.83590515 7.28909485 -5.83590515 7.28909485 -6.9375 6.1875 C-7.0625 3.6875 -7.0625 3.6875 -6.9375 1.1875 C-5.13003866 -0.61996134 -2.43304219 0.01446517 0 0 Z " fill="#404547" transform="translate(292.9375,530.8125)"/>
<path d="M0 0 C6.93 0 13.86 0 21 0 C21 0.66 21 1.32 21 2 C18.36 2.33 15.72 2.66 13 3 C12.67 10.92 12.34 18.84 12 27 C11.01 27 10.02 27 9 27 C8.67 19.08 8.34 11.16 8 3 C5.36 2.67 2.72 2.34 0 2 C0 1.34 0 0.68 0 0 Z " fill="#FAF2DB" transform="translate(333,528)"/>
<path d="M0 0 C0.33 0 0.66 0 1 0 C1 19.14 1 38.28 1 58 C7.290625 57.87625 13.58125 57.7525 20.0625 57.625 C22.03484619 57.59100098 24.00719238 57.55700195 26.03930664 57.52197266 C27.62127292 57.48673181 29.20322417 57.45080675 30.78515625 57.4140625 C31.59142456 57.40270264 32.39769287 57.39134277 33.22839355 57.37963867 C38.16288298 57.25448585 42.31218636 56.56169128 47 55 C45.30842298 57.4082057 43.93445881 58.83514848 40.9732666 59.35754395 C38.37537952 59.46317951 35.80249935 59.44920895 33.203125 59.390625 C32.36185059 59.38659668 31.52057617 59.38256836 30.65380859 59.37841797 C27.51898305 59.35753042 24.38446904 59.30168466 21.25 59.25 C14.2375 59.1675 7.225 59.085 0 59 C0 39.53 0 20.06 0 0 Z " fill="#565A58" transform="translate(292,439)"/>
<path d="M0 0 C0.66 0.33 1.32 0.66 2 1 C-2.01395282 5.82928698 -6.15688208 10.15048563 -10.953125 14.203125 C-13.14247507 16.12507353 -15.15859824 18.16007864 -17.1875 20.25 C-20.51146305 23.62620608 -23.77231081 25.88615541 -28 28 C-26.6651174 25.03821661 -25.19867264 22.94246956 -22.91015625 20.64453125 C-22.295354 20.02586182 -21.68055176 19.40719238 -21.04711914 18.76977539 C-20.39219482 18.12387451 -19.73727051 17.47797363 -19.0625 16.8125 C-18.39532959 16.14919678 -17.72815918 15.48589355 -17.04077148 14.80249023 C-11.63753804 9.49233798 -6.01433697 4.61390923 0 0 Z " fill="#B9B6A7" transform="translate(531,235)"/>
<path d="M0 0 C2.08379027 0.11713614 4.16701962 0.24425015 6.25 0.375 C7.41015625 0.44460938 8.5703125 0.51421875 9.765625 0.5859375 C13.0335134 0.84376064 16.18579163 1.39375064 19.40625 2 C27.32384133 3.36600202 35.23687392 3.45773318 43.25 3.625 C44.78517571 3.66329016 46.32033247 3.70234776 47.85546875 3.7421875 C51.57013657 3.836951 55.28495071 3.92140505 59 4 C59 4.33 59 4.66 59 5 C53.7896356 5.02495201 48.57930695 5.04297787 43.36889648 5.05493164 C41.60098666 5.05992164 39.83308089 5.06671601 38.06518555 5.07543945 C12.59359323 5.19786441 12.59359323 5.19786441 4.3125 2.4375 C3.48363281 2.16808594 2.65476562 1.89867187 1.80078125 1.62109375 C1.20652344 1.41613281 0.61226563 1.21117187 0 1 C0 0.67 0 0.34 0 0 Z " fill="#A8A699" transform="translate(446,386)"/>
<path d="M0 0 C1.051875 -0.01417969 2.10375 -0.02835938 3.1875 -0.04296875 C6 0.1875 6 0.1875 9 2.1875 C9.1875 4.8125 9.1875 4.8125 9 7.1875 C4.125 6.3125 4.125 6.3125 3 5.1875 C0.98405418 4.95322222 -1.038474 4.77413876 -3.0625 4.625 C-4.16722656 4.54121094 -5.27195312 4.45742188 -6.41015625 4.37109375 C-7.26480469 4.31050781 -8.11945313 4.24992188 -9 4.1875 C-9 3.1975 -9 2.2075 -9 1.1875 C-5.79226388 0.11825463 -3.37015182 0.02065044 0 0 Z " fill="#EAE3CE" transform="translate(296,526.8125)"/>
<path d="M0 0 C0.66 0.33 1.32 0.66 2 1 C-15.24385902 20.57636169 -15.24385902 20.57636169 -21 23 C-16.90798959 14.02141406 -7.91685614 5.70505155 0 0 Z " fill="#515454" transform="translate(439,205)"/>
<path d="M0 0 C1.64574566 -0.02688151 3.29161413 -0.04634123 4.9375 -0.0625 C5.85402344 -0.07410156 6.77054688 -0.08570313 7.71484375 -0.09765625 C10 0 10 0 11 1 C11 2.65 11 4.3 11 6 C7.37 6 3.74 6 0 6 C0 4.02 0 2.04 0 0 Z " fill="#151C24" transform="translate(190,533)"/>
<path d="M0 0 C3.3 0 6.6 0 10 0 C10 1.98 10 3.96 10 6 C6.7 6 3.4 6 0 6 C0 4.02 0 2.04 0 0 Z " fill="#141C24" transform="translate(474,533)"/>
<path d="M0 0 C0.66 0 1.32 0 2 0 C5.0505873 8.25949525 7.85406445 16.45115106 10 25 C8 24 8 24 6.9296875 21.41796875 C6.40761719 19.81888672 6.40761719 19.81888672 5.875 18.1875 C5.34519531 16.60001953 5.34519531 16.60001953 4.8046875 14.98046875 C4 12 4 12 4 8 C2.68 8 1.36 8 0 8 C-1.78969026 10.42672567 -1.78969026 10.42672567 -3 13 C-4 11 -4 11 -3.22265625 8.3984375 C-2.83980469 7.40070313 -2.45695312 6.40296875 -2.0625 5.375 C-1.68222656 4.37210937 -1.30195313 3.36921875 -0.91015625 2.3359375 C-0.60980469 1.56507813 -0.30945313 0.79421875 0 0 Z " fill="#797A74" transform="translate(351,289)"/>
<path d="M0 0 C0.56976563 0.23332031 1.13953125 0.46664062 1.7265625 0.70703125 C1.13488281 1.15433594 0.54320312 1.60164062 -0.06640625 2.0625 C-5.35653039 6.07359243 -5.35653039 6.07359243 -10.0859375 10.70703125 C-12.2734375 12.70703125 -12.2734375 12.70703125 -14.5234375 12.70703125 C-16.2734375 11.70703125 -16.2734375 11.70703125 -17.2734375 8.70703125 C-16.4690625 8.52140625 -15.6646875 8.33578125 -14.8359375 8.14453125 C-10.62687563 6.44613786 -7.81365323 4.03960607 -4.421875 1.0703125 C-2.2734375 -0.29296875 -2.2734375 -0.29296875 0 0 Z " fill="#656764" transform="translate(166.2734375,202.29296875)"/>
<path d="M0 0 C0.66 0 1.32 0 2 0 C5 6.625 5 6.625 5 10 C2.36 10 -0.28 10 -3 10 C-2.49287967 6.28111761 -1.88391785 3.26545761 0 0 Z " fill="#525554" transform="translate(426,535)"/>
<path d="M0 0 C0.66 0.33 1.32 0.66 2 1 C0.08743854 3.10802765 -1.82980255 5.21144674 -3.75 7.3125 C-4.28882813 7.90740234 -4.82765625 8.50230469 -5.3828125 9.11523438 C-8.08140479 12.06064914 -10.6628514 14.75633456 -14 17 C-14.66 16.67 -15.32 16.34 -16 16 C-10.96679794 10.22494276 -5.96260189 4.82082706 0 0 Z " fill="#B7B4A5" transform="translate(398,157)"/>
<path d="M0 0 C0.66 0.33 1.32 0.66 2 1 C-0.57033902 3.69140572 -2.63218878 4.22612107 -6.21777344 4.34057617 C-7.93171403 4.34010287 -9.64570191 4.32325279 -11.359375 4.29296875 C-12.26375305 4.28872391 -13.1681311 4.28447906 -14.09991455 4.28010559 C-16.98358139 4.26333574 -19.866545 4.22568669 -22.75 4.1875 C-24.70702114 4.17245097 -26.66405326 4.15876295 -28.62109375 4.14648438 C-33.41433275 4.11343774 -38.20704721 4.06166705 -43 4 C-43 3.67 -43 3.34 -43 3 C-41.3125769 2.970271 -41.3125769 2.970271 -39.59106445 2.93994141 C-35.40692219 2.86371845 -31.22312013 2.77502694 -27.03930664 2.68261719 C-25.23045582 2.64439633 -23.42153079 2.6095315 -21.61254883 2.578125 C-19.00835698 2.53232443 -16.404673 2.47435526 -13.80078125 2.4140625 C-12.99538406 2.40251129 -12.18998688 2.39096008 -11.36018372 2.37905884 C-7.07645363 2.26712411 -3.97218186 1.74516144 0 0 Z " fill="#84837C" transform="translate(337,494)"/>
<path d="M0 0 C1.76923828 0.01353516 1.76923828 0.01353516 3.57421875 0.02734375 C4.47785156 0.03894531 5.38148438 0.05054688 6.3125 0.0625 C6.3125 0.3925 6.3125 0.7225 6.3125 1.0625 C5.42046875 1.16046875 4.5284375 1.2584375 3.609375 1.359375 C2.43890625 1.50890625 1.2684375 1.6584375 0.0625 1.8125 C-1.67773438 2.02132812 -1.67773438 2.02132812 -3.453125 2.234375 C-7.09449031 3.16670525 -8.4448821 4.08671856 -10.6875 7.0625 C-11.49515878 10.70971696 -11.49515878 10.70971696 -11.6875 14.0625 C-12.0175 14.0625 -12.3475 14.0625 -12.6875 14.0625 C-12.76871924 12.45917209 -12.82679134 10.85465974 -12.875 9.25 C-12.90980469 8.35667969 -12.94460938 7.46335937 -12.98046875 6.54296875 C-12.6875 4.0625 -12.6875 4.0625 -11.36328125 2.30078125 C-7.7731946 -0.35203336 -4.29303276 -0.04250527 0 0 Z " fill="#AAA89B" transform="translate(293.6875,525.9375)"/>
<path d="M0 0 C2.46301423 2.46301423 2.76766521 4.27360036 3.625 7.625 C3.88539063 8.62789062 4.14578125 9.63078125 4.4140625 10.6640625 C4.60742188 11.43492187 4.80078125 12.20578125 5 13 C4.01 12.67 3.02 12.34 2 12 C1.34 12.99 0.68 13.98 0 15 C-0.07427838 11.65747276 -0.06546953 9.1964086 1 6 C0.72428861 3.99124558 0.39764263 1.98821313 0 0 Z " fill="#C6C1B1" transform="translate(430,527)"/>
<path d="M0 0 C0.66 0.33 1.32 0.66 2 1 C-0.31 3.64 -2.62 6.28 -5 9 C-6.32 8.67 -7.64 8.34 -9 8 C-6.03 5.36 -3.06 2.72 0 0 Z " fill="#AAA89B" transform="translate(531,235)"/>
<path d="M0 0 C7.26153846 0.36923077 7.26153846 0.36923077 11 3.5625 C11.99 4.7690625 11.99 4.7690625 13 6 C8.14036821 5.39254603 4.2594482 3.27241033 0 1 C0 0.67 0 0.34 0 0 Z " fill="#ADAA9D" transform="translate(525,192)"/>
<path d="M0 0 C0.66 0 1.32 0 2 0 C2.33 2.64 2.66 5.28 3 8 C1.68 8 0.36 8 -1 8 C-1.04241723 5.66705225 -1.04092937 3.33297433 -1 1 C-0.67 0.67 -0.34 0.34 0 0 Z " fill="#272D33" transform="translate(426,535)"/>
<path d="M0 0 C0.66 0.33 1.32 0.66 2 1 C0.02 3.31 -1.96 5.62 -4 8 C-5.32 7.67 -6.64 7.34 -8 7 C-5.36 4.69 -2.72 2.38 0 0 Z " fill="#A7A599" transform="translate(475,292)"/>
<path d="M0 0 C2.125 0.375 2.125 0.375 4 1 C1.6875 3.5 1.6875 3.5 -1 6 C-1.99 6 -2.98 6 -4 6 C-2.84826645 3.53199953 -1.95216435 1.95216435 0 0 Z " fill="#BFBBAC" transform="translate(368,445)"/>
<path d="M0 0 C0.75 1.5625 0.75 1.5625 1 4 C-0.13084437 6.50286409 -1.52139516 8.67007722 -3 11 C-3.66 11 -4.32 11 -5 11 C-3.77472971 6.94718288 -2.30119506 3.55639236 0 0 Z " fill="#616461" transform="translate(587,175)"/>
<path d="M0 0 C-0.33 2.64 -0.66 5.28 -1 8 C-1.99 7.34 -2.98 6.68 -4 6 C-3.625 3.5625 -3.625 3.5625 -3 1 C-1 0 -1 0 0 0 Z " fill="#F4ECD5" transform="translate(423,537)"/>
<path d="M0 0 C0.66 0.33 1.32 0.66 2 1 C-0.25 3.5625 -0.25 3.5625 -3 6 C-4.32 5.67 -5.64 5.34 -7 5 C-4.69 3.35 -2.38 1.7 0 0 Z " fill="#6A6C68" transform="translate(299,367)"/>
<path d="M0 0 C0.58265625 0.21527344 1.1653125 0.43054688 1.765625 0.65234375 C0.31298462 1.51615665 -1.1466913 2.36814829 -2.609375 3.21484375 C-3.82753906 3.92833984 -3.82753906 3.92833984 -5.0703125 4.65625 C-5.78445313 4.98496094 -6.49859375 5.31367188 -7.234375 5.65234375 C-7.894375 5.32234375 -8.554375 4.99234375 -9.234375 4.65234375 C-8.16330383 3.78285058 -7.07691556 2.9322017 -5.984375 2.08984375 C-5.38109375 1.61417969 -4.7778125 1.13851562 -4.15625 0.6484375 C-2.234375 -0.34765625 -2.234375 -0.34765625 0 0 Z " fill="#83847C" transform="translate(450.234375,199.34765625)"/>
</svg>
